<svg width="82" height="82" viewBox="0 0 82 82" fill="none" xmlns="http://www.w3.org/2000/svg">
<path d="M33.4815 82.0002H17.4258C15.8395 81.9415 14.3428 81.3016 13.263 80.2204C12.1832 79.1393 11.6083 77.7049 11.6638 76.2309V37.7524C11.6565 36.9303 11.8326 36.1157 12.181 35.36C12.5295 34.6043 13.0427 33.9239 13.6884 33.3616L17.583 30.0356C18.1956 29.4972 18.5843 28.7755 18.6808 27.9972C18.816 27.0235 18.987 26.1138 19.1442 25.2759C19.4149 24.1634 19.5518 23.0264 19.5524 21.8858C19.5232 21.5471 19.64 21.2114 19.8771 20.9526C20.1143 20.6938 20.4524 20.5332 20.8171 20.506C21.1817 20.4788 21.5431 20.5873 21.8216 20.8076C22.1002 21.028 22.2731 21.3421 22.3024 21.6809C22.3303 23.0381 22.1826 24.3935 21.8624 25.7179C21.7107 26.52 21.5452 27.3899 21.4184 28.3226C21.2383 29.7006 20.541 30.9754 19.449 31.9229L15.5543 35.2489C15.1901 35.5711 14.9015 35.9598 14.7069 36.3907C14.5123 36.8215 14.4158 37.2852 14.4235 37.7524V76.2309C14.3691 77.0249 14.6538 77.8068 15.2158 78.4071C15.7778 79.0074 16.5719 79.3777 17.4258 79.4378H33.4843C34.3385 79.378 35.1329 79.0078 35.6952 78.4075C36.2575 77.8072 36.5424 77.0251 36.488 76.2309V37.7524C36.4955 37.2852 36.3989 36.8216 36.2043 36.3908C36.0096 35.96 35.7212 35.5712 35.3572 35.2489L31.4611 31.9229C30.3692 30.9754 29.6718 29.7006 29.4917 28.3226L28.6146 21.9461C28.5682 21.609 28.6678 21.2686 28.8915 20.9997C29.1152 20.7308 29.4447 20.5555 29.8076 20.5124C30.1704 20.4692 30.5368 20.5618 30.8263 20.7696C31.1157 20.9774 31.3044 21.2836 31.3508 21.6206L32.2293 27.9972C32.3262 28.7756 32.7154 29.4974 33.3285 30.0356L37.2231 33.3616C37.8683 33.9241 38.3812 34.6046 38.7294 35.3603C39.0776 36.1159 39.2536 36.9304 39.2463 37.7524V76.2309C39.3019 77.7049 38.7269 79.1393 37.6471 80.2204C36.5673 81.3016 35.0706 81.9415 33.4843 82.0002H33.4815Z" fill="#FF6161"/>
<path d="M32.3508 23.0642H18.5595C18.1938 23.0642 17.843 22.9292 17.5844 22.689C17.3257 22.4487 17.1804 22.1228 17.1804 21.783V16.6582C17.1804 16.3184 17.3257 15.9925 17.5844 15.7522C17.843 15.512 18.1938 15.377 18.5595 15.377H32.3508C32.7165 15.377 33.0673 15.512 33.3259 15.7522C33.5846 15.9925 33.7299 16.3184 33.7299 16.6582V21.783C33.7299 22.1228 33.5846 22.4487 33.3259 22.689C33.0673 22.9292 32.7165 23.0642 32.3508 23.0642ZM19.9387 20.5018H30.9716V17.9394H19.9387V20.5018Z" fill="#FF6161"/>
<path d="M22.697 17.9398C22.3312 17.9398 21.9804 17.8048 21.7218 17.5645C21.4632 17.3243 21.3179 16.9984 21.3179 16.6586V6.40761C21.3179 6.06782 21.4632 5.74194 21.7218 5.50166C21.9804 5.26139 22.3312 5.1264 22.697 5.1264C23.0628 5.1264 23.4135 5.26139 23.6722 5.50166C23.9308 5.74194 24.0761 6.06782 24.0761 6.40761V16.6586C24.0761 16.9984 23.9308 17.3243 23.6722 17.5645C23.4135 17.8048 23.0628 17.9398 22.697 17.9398ZM28.2135 17.9398C27.8477 17.9398 27.4969 17.8048 27.2383 17.5645C26.9797 17.3243 26.8344 16.9984 26.8344 16.6586V6.40761C26.8344 6.06782 26.9797 5.74194 27.2383 5.50166C27.4969 5.26139 27.8477 5.1264 28.2135 5.1264C28.5792 5.1264 28.93 5.26139 29.1887 5.50166C29.4473 5.74194 29.5926 6.06782 29.5926 6.40761V16.6586C29.5926 16.9984 29.4473 17.3243 29.1887 17.5645C28.93 17.8048 28.5792 17.9398 28.2135 17.9398Z" fill="#FF6161"/>
<path d="M5.33921 17.0881C4.98046 17.0881 4.63575 16.9586 4.37796 16.7268L0.419884 13.1586C0.289647 13.0415 0.185543 12.9017 0.113524 12.7471C0.0415048 12.5926 0.0029846 12.4264 0.00016667 12.258C-0.00265126 12.0896 0.0302882 11.9224 0.097101 11.7659C0.163914 11.6093 0.263289 11.4665 0.389544 11.3457L11.8225 0.391365C11.9509 0.268301 12.1045 0.170421 12.2744 0.10352C12.4442 0.0366186 12.6268 0.00205547 12.8113 0.00187683L35.1089 0.00187683C35.4747 0.00187683 35.8255 0.136861 36.0841 0.377135C36.3428 0.617408 36.4881 0.943289 36.4881 1.28309V6.40793C36.4881 6.74773 36.3428 7.07361 36.0841 7.31388C35.8255 7.55415 35.4747 7.68914 35.1089 7.68914H15.7309L6.32666 16.6986C6.07227 16.9425 5.72405 17.0826 5.35852 17.0881H5.33921ZM3.32983 12.2105L5.30887 13.9953L14.1573 5.5162C14.2859 5.39299 14.4398 5.29502 14.6099 5.22811C14.78 5.1612 14.9628 5.12672 15.1475 5.12672H33.7284V2.5643H13.3947L3.32983 12.2105ZM37.8658 43.5643H13.0416C12.6758 43.5643 12.3251 43.4293 12.0664 43.189C11.8078 42.9488 11.6625 42.6229 11.6625 42.2831C11.6625 41.9433 11.8078 41.6174 12.0664 41.3771C12.3251 41.1369 12.6758 41.0019 13.0416 41.0019H37.8658C38.2316 41.0019 38.5824 41.1369 38.841 41.3771C39.0996 41.6174 39.2449 41.9433 39.2449 42.2831C39.2449 42.6229 39.0996 42.9488 38.841 43.189C38.5824 43.4293 38.2316 43.5643 37.8658 43.5643ZM37.8658 70.4697H13.0416C12.6758 70.4697 12.3251 70.3347 12.0664 70.0945C11.8078 69.8542 11.6625 69.5283 11.6625 69.1885C11.6625 68.8487 11.8078 68.5228 12.0664 68.2825C12.3251 68.0423 12.6758 67.9073 13.0416 67.9073H37.8658C38.2316 67.9073 38.5824 68.0423 38.841 68.2825C39.0996 68.5228 39.2449 68.8487 39.2449 69.1885C39.2449 69.5283 39.0996 69.8542 38.841 70.0945C38.5824 70.3347 38.2316 70.4697 37.8658 70.4697ZM25.4551 64.0637C24.364 64.0637 23.2975 63.7631 22.3903 63.2C21.4831 62.6368 20.776 61.8365 20.3585 60.9C19.941 59.9636 19.8317 58.9331 20.0446 57.939C20.2574 56.9449 20.7828 56.0317 21.5543 55.315C22.3258 54.5983 23.3088 54.1102 24.3789 53.9125C25.449 53.7147 26.5581 53.8162 27.5662 54.2041C28.5742 54.592 29.4357 55.2488 30.0419 56.0916C30.648 56.9344 30.9716 57.9252 30.9716 58.9388C30.9701 60.2976 30.3884 61.6003 29.3542 62.5611C28.32 63.5219 26.9177 64.0623 25.4551 64.0637ZM25.4551 56.3764C24.9096 56.3764 24.3763 56.5267 23.9227 56.8082C23.4691 57.0898 23.1156 57.49 22.9068 57.9582C22.698 58.4264 22.6434 58.9417 22.7498 59.4387C22.8563 59.9358 23.119 60.3924 23.5047 60.7507C23.8905 61.1091 24.3819 61.3531 24.917 61.452C25.452 61.5509 26.0066 61.5001 26.5106 61.3062C27.0146 61.1122 27.4454 60.7838 27.7485 60.3624C28.0516 59.941 28.2133 59.4456 28.2133 58.9388C28.2122 58.2595 27.9213 57.6084 27.4042 57.128C26.8872 56.6477 26.1863 56.3774 25.4551 56.3764Z" fill="#FF6161"/>
<path d="M25.4551 58.9382H25.4385C25.2573 58.9364 25.0782 58.9014 24.9116 58.8352C24.7449 58.769 24.5939 58.673 24.4673 58.5526C24.3406 58.4322 24.2407 58.2897 24.1733 58.1334C24.1059 57.9771 24.0724 57.81 24.0746 57.6416C24.1212 53.5804 25.7028 49.6636 28.5429 46.5758C28.6591 46.4438 28.8025 46.3347 28.9647 46.2549C29.1268 46.175 29.3045 46.1261 29.4873 46.1108C29.6701 46.0956 29.8544 46.1144 30.0293 46.1662C30.2041 46.218 30.3661 46.3017 30.5057 46.4123C30.6454 46.523 30.7598 46.6585 30.8423 46.8108C30.9248 46.9631 30.9738 47.1292 30.9864 47.2993C30.9989 47.4694 30.9748 47.6401 30.9154 47.8014C30.8561 47.9628 30.7626 48.1115 30.6406 48.2388C28.2202 50.8714 26.8729 54.2105 26.8342 57.6724C26.8298 58.0095 26.6826 58.3315 26.4244 58.5684C26.1663 58.8054 25.818 58.9383 25.4551 58.9382ZM76.2343 81.9987H60.1758C58.5898 81.9397 57.0934 81.2996 56.0139 80.2185C54.9344 79.1374 54.3596 77.7032 54.4152 76.2294V37.7509C54.4077 36.9289 54.5836 36.1143 54.9318 35.3586C55.28 34.6029 55.793 33.9225 56.4384 33.3602L60.333 30.0354C60.9456 29.497 61.3343 28.7753 61.4308 27.997C61.566 27.022 61.737 26.1136 61.8942 25.2744C62.1641 24.1618 62.301 23.0249 62.3024 21.8844C62.2732 21.5456 62.39 21.2099 62.6271 20.9511C62.8643 20.6923 63.2024 20.5317 63.5671 20.5045C63.9318 20.4773 64.2931 20.5858 64.5717 20.8061C64.8502 21.0265 65.0231 21.3406 65.0524 21.6794C65.0798 23.0362 64.9316 24.3912 64.6111 25.7152C64.4594 26.5185 64.2966 27.3884 64.1684 28.3212C63.9887 29.6996 63.2913 30.9749 62.199 31.9226L58.3057 35.2474C57.9415 35.5696 57.6529 35.9583 57.4583 36.3892C57.2637 36.82 57.1672 37.2837 57.1749 37.7509V76.2294C57.1205 77.0232 57.405 77.8049 57.9667 78.4052C58.5285 79.0054 59.3221 79.3759 60.1758 79.4363H76.2343C77.0885 79.3765 77.8829 79.0063 78.4452 78.406C79.0075 77.8057 79.2924 77.0236 79.2381 76.2294V37.7509C79.2455 37.2837 79.1489 36.8201 78.9543 36.3893C78.7597 35.9585 78.4713 35.5697 78.1072 35.2474L74.2112 31.9226C73.1192 30.9752 72.4218 29.7004 72.2418 28.3224L71.3646 21.9446C71.3416 21.7777 71.3543 21.6082 71.4018 21.4458C71.4493 21.2834 71.5307 21.1313 71.6415 20.9982C71.7523 20.8651 71.8902 20.7535 72.0474 20.6699C72.2046 20.5863 72.3779 20.5323 72.5576 20.5109C72.7372 20.4895 72.9197 20.5012 73.0945 20.5454C73.2692 20.5895 73.433 20.6652 73.5763 20.7681C73.7196 20.871 73.8397 20.9991 73.9297 21.1452C74.0197 21.2912 74.0778 21.4522 74.1008 21.6191L74.9793 27.997C75.0762 28.7754 75.4654 29.4972 76.0785 30.0354L79.9731 33.3602C80.6183 33.9226 81.1312 34.6031 81.4794 35.3588C81.8276 36.1144 82.0036 36.9289 81.9963 37.7509V76.2294C82.0519 77.7034 81.4769 79.1378 80.3971 80.2189C79.3173 81.3001 77.8206 81.94 76.2343 81.9987Z" fill="#FF6161"/>
<path d="M75.102 23.0631H61.3108C60.945 23.0631 60.5942 22.9281 60.3356 22.6879C60.0769 22.4476 59.9316 22.1217 59.9316 21.7819V16.6571C59.9316 16.3173 60.0769 15.9914 60.3356 15.7511C60.5942 15.5108 60.945 15.3759 61.3108 15.3759H75.102C75.4677 15.3759 75.8185 15.5108 76.0772 15.7511C76.3358 15.9914 76.4811 16.3173 76.4811 16.6571V21.7819C76.4811 22.1217 76.3358 22.4476 76.0772 22.6879C75.8185 22.9281 75.4677 23.0631 75.102 23.0631ZM62.6899 20.5007H73.7229V17.9383H62.6899V20.5007Z" fill="#FF6161"/>
<path d="M65.4482 17.9383C65.0824 17.9383 64.7317 17.8033 64.473 17.563C64.2144 17.3228 64.0691 16.9969 64.0691 16.6571V6.40612C64.0691 6.06632 64.2144 5.74044 64.473 5.50017C64.7317 5.25989 65.0824 5.12491 65.4482 5.12491C65.814 5.12491 66.1648 5.25989 66.4234 5.50017C66.682 5.74044 66.8273 6.06632 66.8273 6.40612V16.6571C66.8273 16.9969 66.682 17.3228 66.4234 17.563C66.1648 17.8033 65.814 17.9383 65.4482 17.9383ZM70.9647 17.9383C70.5989 17.9383 70.2481 17.8033 69.9895 17.563C69.7309 17.3228 69.5856 16.9969 69.5856 16.6571V6.40612C69.5856 6.06632 69.7309 5.74044 69.9895 5.50017C70.2481 5.25989 70.5989 5.12491 70.9647 5.12491C71.3305 5.12491 71.6813 5.25989 71.9399 5.50017C72.1985 5.74044 72.3438 6.06632 72.3438 6.40612V16.6571C72.3438 16.9969 72.1985 17.3228 71.9399 17.563C71.6813 17.8033 71.3305 17.9383 70.9647 17.9383Z" fill="#FF6161"/>
<path d="M48.0904 17.0862C47.7316 17.0863 47.3869 16.9567 47.1291 16.7249L43.171 13.1567C42.9084 12.9202 42.7577 12.5965 42.752 12.2568C42.7463 11.917 42.8861 11.5891 43.1407 11.3451L54.5736 0.389488C54.7022 0.26627 54.8561 0.1683 55.0262 0.101394C55.1963 0.0344872 55.3791 7.16998e-06 55.5638 0H77.8601C78.2258 0 78.5766 0.134984 78.8353 0.375258C79.0939 0.615531 79.2392 0.941412 79.2392 1.28121V6.40605C79.2392 6.74585 79.0939 7.07173 78.8353 7.312C78.5766 7.55228 78.2258 7.68726 77.8601 7.68726H58.482L49.0792 16.6967C48.8248 16.9406 48.4766 17.0807 48.111 17.0862H48.0904ZM46.081 12.2087L48.06 13.9934L56.9085 5.51433C57.037 5.39111 57.1909 5.29314 57.361 5.22623C57.5311 5.15933 57.714 5.12485 57.8987 5.12484H76.481V2.5637H56.1458L46.081 12.2087ZM80.6169 43.5624H55.7927C55.427 43.5624 55.0762 43.4274 54.8176 43.1872C54.5589 42.9469 54.4136 42.621 54.4136 42.2812C54.4136 41.9414 54.5589 41.6155 54.8176 41.3753C55.0762 41.135 55.427 41 55.7927 41H80.6169C80.9827 41 81.3335 41.135 81.5921 41.3753C81.8508 41.6155 81.9961 41.9414 81.9961 42.2812C81.9961 42.621 81.8508 42.9469 81.5921 43.1872C81.3335 43.4274 80.9827 43.5624 80.6169 43.5624ZM80.6169 70.4678H55.7927C55.427 70.4678 55.0762 70.3328 54.8176 70.0926C54.5589 69.8523 54.4136 69.5264 54.4136 69.1866C54.4136 68.8468 54.5589 68.5209 54.8176 68.2807C55.0762 68.0404 55.427 67.9054 55.7927 67.9054H80.6169C80.9827 67.9054 81.3335 68.0404 81.5921 68.2807C81.8508 68.5209 81.9961 68.8468 81.9961 69.1866C81.9961 69.5264 81.8508 69.8523 81.5921 70.0926C81.3335 70.3328 80.9827 70.4678 80.6169 70.4678ZM68.2062 64.0618C67.1152 64.0618 66.0486 63.7612 65.1414 63.1981C64.2342 62.635 63.5272 61.8346 63.1097 60.8981C62.6921 59.9617 62.5829 58.9313 62.7957 57.9371C63.0086 56.943 63.534 56.0299 64.3055 55.3131C65.077 54.5964 66.0599 54.1083 67.13 53.9106C68.2001 53.7128 69.3093 53.8143 70.3173 54.2022C71.3253 54.5901 72.1869 55.247 72.793 56.0897C73.3992 56.9325 73.7227 57.9233 73.7227 58.9369C73.7213 60.2957 73.1396 61.5985 72.1054 62.5593C71.0711 63.5201 69.6688 64.0604 68.2062 64.0618ZM68.2062 56.3745C67.6607 56.3745 67.1274 56.5248 66.6738 56.8064C66.2202 57.0879 65.8667 57.4881 65.6579 57.9563C65.4492 58.4246 65.3946 58.9398 65.501 59.4368C65.6074 59.9339 65.8701 60.3905 66.2558 60.7489C66.6416 61.1072 67.1331 61.3513 67.6681 61.4501C68.2032 61.549 68.7578 61.4983 69.2618 61.3043C69.7658 61.1104 70.1965 60.7819 70.4996 60.3605C70.8027 59.9392 70.9645 59.4437 70.9645 58.9369C70.9634 58.2577 70.6724 57.6065 70.1554 57.1262C69.6384 56.6458 68.9374 56.3755 68.2062 56.3745Z" fill="#FF6161"/>
</svg>
