<svg width="50" height="82" viewBox="0 0 50 82" fill="none" xmlns="http://www.w3.org/2000/svg">
<path d="M13.6914 16.9202C14.0544 17.0138 14.4397 16.9594 14.7625 16.7689C15.0854 16.5785 15.3194 16.2676 15.4131 15.9047C15.9554 13.8369 17.1472 11.9978 18.813 10.6581C19.1055 10.4234 19.2927 10.0821 19.3336 9.70935C19.3744 9.33657 19.2655 8.96282 19.0308 8.67034C18.7961 8.37786 18.4548 8.19059 18.082 8.14974C17.7092 8.1089 17.3355 8.21781 17.043 8.45253C14.9024 10.1751 13.3716 12.5395 12.6761 15.1976C12.6297 15.3774 12.6191 15.5646 12.6449 15.7484C12.6708 15.9323 12.7327 16.1093 12.8269 16.2692C12.9212 16.4292 13.0461 16.569 13.1944 16.6807C13.3428 16.7924 13.5116 16.8738 13.6914 16.9202Z" fill="#FF6161"/>
<path d="M23.5839 8.48209C24.3647 8.48209 24.9977 7.84911 24.9977 7.06829C24.9977 6.28747 24.3647 5.6545 23.5839 5.6545C22.8031 5.6545 22.1701 6.28747 22.1701 7.06829C22.1701 7.84911 22.8031 8.48209 23.5839 8.48209Z" fill="#FF6161"/>
<path d="M0.971387 25.1461C0.927596 25.9136 1.04207 26.682 1.30769 27.4034C1.57332 28.1249 1.98443 28.784 2.51549 29.3399C3.33107 30.1932 4.39241 30.7711 5.55178 30.993L17.2053 67.3437L17.2063 67.347L20.9626 79.0639L20.9639 79.0694C21.6886 81.2971 24.0817 82.5154 26.3093 81.7908C26.9463 81.5836 27.5252 81.2284 27.9985 80.7545C28.4718 80.2805 28.8262 79.7012 29.0326 79.0639L44.4461 30.9849C47.5017 30.4111 49.5135 27.4688 48.9397 24.4133C48.9352 24.3894 48.9306 24.3657 48.9258 24.3419C48.366 21.6916 46.0277 19.7945 43.3189 19.7933C43.3576 19.3163 43.3768 18.8469 43.3768 18.3795C43.3772 8.22869 35.1483 0 24.9977 0C14.847 0 6.61832 8.22869 6.61832 18.3795C6.61832 18.8482 6.63774 19.3185 6.67694 19.7962C3.67228 19.822 1.1904 22.1494 0.971387 25.1461ZM26.3418 78.1954C26.2493 78.4787 26.0696 78.7256 25.8284 78.9007C25.5872 79.0757 25.2969 79.1701 24.9988 79.1704C24.7008 79.1706 24.4103 79.0766 24.1689 78.9019C23.9274 78.7272 23.7473 78.4807 23.6544 78.1975L21.0037 69.9293L27.784 73.6974L26.3418 78.1954ZM28.6642 70.9516L19.7417 65.9932L16.0402 54.4477L31.2468 62.8952L28.6642 70.9516ZM32.1272 60.1501L14.7786 50.5123L11.0767 38.9655L34.7096 52.094L32.1272 60.1501ZM35.5901 49.3486L9.815 35.03L8.55593 31.103H19.8254L38.1729 41.2916L35.5901 49.3486ZM39.0529 38.5473L25.6482 31.103H41.4396L39.0529 38.5473ZM6.85865 22.6202H8.27863C8.48411 22.6202 8.68711 22.5755 8.87352 22.489C9.05992 22.4026 9.22525 22.2765 9.35799 22.1197C9.49072 21.9629 9.58769 21.779 9.64212 21.5808C9.69655 21.3827 9.70715 21.1751 9.67318 20.9725C8.2109 12.5088 13.8865 4.46229 22.3502 2.99985C30.8139 1.5374 38.8604 7.21321 40.3228 15.6769C40.6256 17.4291 40.6256 19.2203 40.3228 20.9725C40.2888 21.1751 40.2994 21.3827 40.3538 21.5808C40.4082 21.779 40.5052 21.9629 40.6379 22.1197C40.7706 22.2765 40.936 22.4026 41.1223 22.489C41.3087 22.5755 41.5117 22.6202 41.7172 22.6202H43.2201C43.8923 22.6055 44.5494 22.8211 45.0823 23.2312C45.6151 23.6413 45.9918 24.2212 46.1498 24.8748C46.4642 26.4067 45.4773 27.9032 43.9454 28.2176C43.7585 28.256 43.5683 28.2754 43.3775 28.2754H6.61832C5.05668 28.2754 3.79073 27.0095 3.79056 25.4478C3.79056 25.3964 3.79193 25.345 3.79468 25.2938C3.96178 23.7395 5.29615 22.5752 6.85865 22.6202Z" fill="#FF6161"/>
</svg>
