<svg width="72" height="74" viewBox="0 0 72 74" fill="none" xmlns="http://www.w3.org/2000/svg">
<path d="M63.9553 39.4533C64.9866 39.0753 65.9377 38.5067 66.759 37.7773C67.6879 36.9393 71.1993 31.2173 69.4863 30.0693C69.5571 29.7604 69.6728 29.4347 69.3886 29.0774C69.303 28.9782 69.1969 28.8986 69.0777 28.8441C68.9585 28.7896 68.8289 28.7615 68.6978 28.7618C65.1774 28.7618 61.6997 30.0401 58.9611 32.2384C59.6969 29.2122 59.6935 25.9963 58.9117 22.9982C58.871 22.8427 58.7866 22.702 58.6685 22.5929C58.5504 22.4838 58.4035 22.4107 58.2452 22.3824C58.087 22.3541 57.9239 22.3716 57.7753 22.4329C57.6267 22.4943 57.4987 22.5969 57.4065 22.7286C55.5318 25.4151 54.1931 28.4381 53.4638 31.6318C51.8238 28.2159 48.9436 25.3931 45.4435 23.907C45.3012 23.8467 45.1451 23.8268 44.9923 23.8493C44.8395 23.8718 44.6958 23.9359 44.5769 24.0346C44.4581 24.1333 44.3687 24.2627 44.3184 24.4088C44.2682 24.5549 44.2591 24.712 44.2921 24.8629C44.5123 25.8604 45.2514 28.7944 46.7791 31.3667C45.1986 30.9803 44.2944 30.9533 43.1823 30.9713C43.5193 29.5975 43.3216 27.5509 43.2497 26.9365C42.6701 22.0221 40.4976 18.9139 37.8354 17.2223C35.8978 15.9361 33.5467 15.088 31.18 14.9285C33.2468 13.648 34.2971 11.1925 34.0578 9.48843C34.096 9.33117 34.1455 9.17841 34.1724 9.01665C34.2059 8.81621 34.1657 8.61043 34.0594 8.43724C33.9531 8.26404 33.7878 8.13512 33.5939 8.07421C28.6447 6.52183 25.3939 9.00654 23.0799 11.7047C23.4933 10.2691 23.6191 8.76054 23.3698 7.28791C23.1541 6.02197 21.1389 1.18284 19.2742 1.45019C18.844 0.994132 18.5868 0.625694 18.097 0.686351C17.9715 0.698213 17.8503 0.738203 17.7424 0.80335C17.6344 0.868497 17.5426 0.957126 17.4736 1.06265C15.5359 4.01578 14.6968 7.63501 15.0383 11.1397C12.9119 8.874 10.2205 7.11605 7.28203 6.12756C7.12952 6.07632 6.96553 6.06983 6.80945 6.10884C6.65337 6.14785 6.51172 6.23074 6.40125 6.3477C6.29079 6.46467 6.21612 6.61082 6.18608 6.76887C6.15605 6.92693 6.17189 7.09028 6.23175 7.23961C7.45501 10.2766 9.25123 13.0499 11.5224 15.4082C7.76616 14.9139 3.82792 15.7744 0.671479 17.8929C0.543103 17.9789 0.440873 18.0986 0.375975 18.2389C0.311077 18.3792 0.286014 18.5346 0.303526 18.6881C0.321039 18.8417 0.380453 18.9875 0.475267 19.1095C0.570081 19.2316 0.69664 19.3252 0.841095 19.3801C3.16068 20.2608 5.56789 20.7528 7.67518 20.8393C4.13907 24.1249 2.5732 28.9078 3.11688 33.383C3.81331 39.123 7.52016 43.6184 11.9302 48.4867C19.1204 56.3902 20.6289 58.466 23.4731 59.7499C23.1125 61.172 22.825 62.8547 22.8822 62.7401C22.2476 67.6691 24.4436 70.8211 28.4234 71.9691C31.2766 73.0519 35.5192 73.663 39.8113 73.1171C41.1345 72.9486 41.1053 71.7579 39.7664 71.6489C38.6094 71.5546 37.5569 71.5793 36.437 71.6343C38.4499 71.3108 40.3685 70.6391 42.5645 70.0864C46.8819 68.999 51.1928 67.8858 55.4969 66.7469C58.8263 65.8651 62.3523 64.8497 64.6382 62.2728C67.6688 58.8558 68.2406 52.8799 64.0608 47.2545C63.9991 47.1276 63.9519 47.004 63.8856 46.8759C64.0945 46.9534 64.317 47.0253 64.5405 47.0972C65.5104 47.6529 66.5542 48.0682 67.6408 48.3306C69.0887 48.6777 71.0724 48.3868 71.6419 46.8209C71.6049 46.8142 71.5655 46.8153 71.5273 46.8119C71.6052 46.7109 71.6588 46.5933 71.6839 46.4682C71.709 46.3432 71.705 46.214 71.6722 46.0908C70.4142 41.6021 67.1622 40.0542 63.9553 39.4533ZM52.7224 34.367C51.6968 33.8031 50.195 33.1033 49.3862 32.135C48.0495 30.5995 47.0442 28.3293 46.4118 26.2827C49.4165 28.0755 51.7249 31.0151 52.7224 34.367ZM48.6662 33.7851C50.4421 35.3982 52.792 35.9082 54.1366 37.5403C57.0246 41.0259 56.7056 45.2618 59.798 50.2683C59.8261 50.3143 62.9904 54.8299 63.8306 54.8299C63.9809 54.8299 64.1284 54.7896 64.2578 54.7131C64.3873 54.6366 64.4938 54.5269 64.5663 54.3952C64.591 54.3503 64.6012 54.2986 64.6247 54.2526C64.8415 57.4393 62.9915 60.343 60.4495 62.2257C56.254 65.345 50.5264 65.8269 45.3941 66.9547C44.3427 66.456 45.4862 63.231 43.8551 61.336C43.0396 60.3857 41.6614 59.9285 39.9663 60.0667C38.8341 60.1633 37.695 60.461 36.6863 60.3745C35.8809 60.3048 34.9834 59.8645 34.8273 59.1535C34.5532 57.9235 36.4134 56.5733 36.6897 54.6603C36.8301 53.7134 36.5504 52.7395 35.9011 51.9217C33.8792 49.373 30.4813 49.8538 27.4675 51.0883C28.9323 45.492 30.4925 39.4409 34.8924 35.7127C38.4319 32.7506 43.7316 31.5824 48.6662 33.7851ZM25.2456 67.7028C24.5178 66.4492 24.2976 64.9406 24.5526 62.9547C24.5559 62.9367 24.5582 62.8929 24.5593 62.8592C25.0985 59.8353 26.1038 56.3093 26.9272 53.1641C27.4237 52.9844 30.0443 51.6027 32.3392 51.7802C33.1828 51.8499 34.0635 52.3171 34.5813 52.9698C36.2898 55.1287 32.5594 56.7317 33.1828 59.5163C33.5288 61.1001 35.1205 61.9314 36.5425 62.0527C37.8208 62.1605 39.025 61.8359 40.1034 61.7449C44.4157 61.4079 42.5431 65.3057 43.5743 67.3973C39.6383 68.4532 36.5605 70.1639 33.1019 70.6335C30.2645 71.0233 26.7306 70.2639 25.2456 67.7028ZM8.65356 8.50331C11.7089 9.97257 14.3374 12.3641 16.0437 15.27C16.5671 16.1596 17.9274 15.498 17.5556 14.5387C16.1021 10.7903 16.4121 6.42972 18.3307 2.90709C19.4405 4.12024 20.3605 5.39854 20.8356 7.24747C21.3478 9.28062 21.1895 13.648 20.3256 15.325C19.8572 16.2349 21.1243 17.0336 21.7432 16.2237C22.0016 15.8867 22.2678 15.5227 22.5464 15.1431C24.7593 12.1203 27.4889 8.39323 32.3302 9.47832C31.3249 12.61 27.5338 14.6623 26.7351 15.0656C25.905 15.4834 26.2802 16.7325 27.162 16.6595C29.4479 16.5247 32.5728 16.81 34.2948 18.286C30.9946 18.623 30.524 18.6286 30.6385 18.6196C27.4832 18.5343 25.0524 17.6997 24.8592 17.6547C22.1016 16.8415 18.3262 15.7407 15.3225 16.6876C15.2672 16.5615 15.1815 16.4512 15.0732 16.3663C12.3937 14.2365 10.2042 11.5547 8.65356 8.50331ZM13.4084 17.5301C12.3076 18.1164 11.3079 18.7466 10.1419 19.0173L10.1442 19.024L10.1217 19.033L10.1195 19.0218C8.09416 19.479 5.17249 18.969 3.17866 18.3882C6.32386 16.8482 10.0532 16.5258 13.4084 17.5301ZM4.78945 33.1808C4.4913 30.7405 4.88819 28.2657 5.93445 26.041C6.98071 23.8163 8.63382 21.9323 10.7036 20.6056C13.0467 19.999 14.7283 18.3141 16.8412 18.076C21.3793 17.5705 24.6368 20.1428 30.5925 20.3046C32.3594 20.2518 36.2314 20.0159 36.6156 19.4127C36.6953 19.2872 36.7404 19.1429 36.7464 18.9943C36.7523 18.8457 36.7188 18.6983 36.6493 18.5668C36.6257 18.5197 36.5864 18.4815 36.5594 18.4354C39.7394 20.2259 42.05 24.5641 40.4359 31.2634C35.0418 32.3417 31.4417 35.8733 29.13 40.7214C27.5574 42.1761 27.4698 43.8296 26.4094 45.1809C25.9106 45.8144 25.0502 46.3289 24.3751 46.0705C23.1878 45.619 23.0822 43.3297 21.6275 42.0548C19.8572 40.4777 16.9479 41.2292 15.5022 43.0848C14.4149 44.4822 13.8701 46.4131 13.5983 47.8173C9.68249 43.5061 5.4769 38.85 4.78945 33.1808ZM15.0395 49.4056C15.1473 48.9462 15.4158 45.9402 16.8311 44.1205C17.3545 43.4488 18.2296 42.9658 19.0619 42.8916C21.7803 42.6243 21.1131 46.6322 23.7798 47.6465C24.8536 48.0509 25.9477 47.7207 26.8081 47.0984C26.1499 49.3899 25.1232 53.3775 23.9022 58.0863C21.5163 56.8934 19.7281 54.575 15.0395 49.4056ZM62.0681 44.1711C61.2807 43.715 60.4259 44.6676 60.9673 45.3999C62.3793 47.314 63.8059 50.0459 63.5138 52.2733C62.6152 51.1635 61.3919 49.6359 61.2358 49.3899C58.1995 44.4766 58.3231 38.6692 54.4713 35.5105C54.8375 34.9556 54.5792 30.8264 57.675 25.4436C58.1175 28.8022 57.5559 32.3136 56.0541 35.342C55.598 36.2597 56.8887 37.0494 57.4941 36.207C59.8373 32.9359 63.6576 30.8073 67.6542 30.4894C67.2442 32.08 66.677 33.5481 65.3964 34.9601C63.9721 36.5013 60.2237 38.7579 58.3422 38.9568C57.3279 39.0646 57.3503 40.5586 58.368 40.635C58.7949 40.6675 59.2476 40.6911 59.7193 40.717C63.461 40.9146 68.0732 41.1606 69.8076 45.801C66.6332 46.6782 62.8432 44.6215 62.0681 44.1711Z" fill="#FF6161"/>
<path d="M46.7544 36.508C47.5294 36.508 47.6249 35.6487 47.8069 35.3622C47.8511 35.2608 47.875 35.1517 47.877 35.0411C47.8791 34.9304 47.8594 34.8205 47.819 34.7175C47.7785 34.6145 47.7182 34.5204 47.6415 34.4407C47.5647 34.361 47.473 34.2972 47.3716 34.253C47.2702 34.2087 47.161 34.1849 47.0504 34.1828C46.9398 34.1807 46.8298 34.2005 46.7268 34.2409C46.6238 34.2813 46.5298 34.3416 46.4501 34.4184C46.3704 34.4951 46.3066 34.5869 46.2624 34.6883L45.9827 35.3285C45.9267 35.4567 45.9036 35.5968 45.9153 35.7361C45.927 35.8755 45.9732 36.0098 46.0498 36.1268C46.1264 36.2438 46.2309 36.3399 46.3539 36.4065C46.4769 36.473 46.6145 36.5079 46.7544 36.508ZM40.5898 49.9178L40.1944 50.4323C40.1243 50.5197 40.0724 50.6203 40.0417 50.728C40.0111 50.8358 40.0022 50.9486 40.0156 51.0598C40.029 51.171 40.0645 51.2785 40.1199 51.3758C40.1754 51.4732 40.2497 51.5585 40.3385 51.6268C40.4274 51.695 40.5289 51.7449 40.6373 51.7735C40.7456 51.802 40.8585 51.8087 40.9695 51.7931C41.0804 51.7774 41.1871 51.7398 41.2834 51.6825C41.3796 51.6251 41.4634 51.5491 41.5299 51.459L41.9242 50.9445C41.9967 50.8574 42.0508 50.7565 42.0834 50.6479C42.116 50.5394 42.1264 50.4254 42.1139 50.3128C42.1014 50.2001 42.0662 50.0911 42.0106 49.9924C41.955 49.8936 41.8801 49.8071 41.7903 49.738C41.7004 49.6689 41.5976 49.6186 41.4879 49.5902C41.3782 49.5618 41.2638 49.5558 41.1518 49.5726C41.0397 49.5893 40.9321 49.6286 40.8356 49.6879C40.739 49.7472 40.6554 49.8254 40.5898 49.9178ZM49.8872 44.2609C50.5668 44.2609 50.7083 43.6004 51.006 43.2387C51.0679 43.1457 51.1107 43.0414 51.1319 42.9317C51.1532 42.822 51.1523 42.7091 51.1295 42.5998C51.1067 42.4904 51.0624 42.3867 50.9991 42.2946C50.9358 42.2025 50.8548 42.1239 50.7609 42.0634C50.667 42.0029 50.5619 41.9617 50.4519 41.9422C50.3419 41.9227 50.2291 41.9253 50.1201 41.9498C50.0111 41.9743 49.9081 42.0202 49.817 42.0849C49.7259 42.1496 49.6486 42.2318 49.5895 42.3266L49.1807 42.9624C49.0988 43.0896 49.0526 43.2365 49.0471 43.3877C49.0416 43.5389 49.0769 43.6888 49.1493 43.8216C49.2217 43.9544 49.3285 44.0653 49.4585 44.1426C49.5886 44.2199 49.7359 44.2608 49.8872 44.2609ZM47.1071 58.1493L46.8431 58.2706C45.8456 58.7322 46.5241 60.2723 47.5508 59.8005L47.8147 59.678C47.9195 59.6345 48.0143 59.5702 48.0936 59.4891C48.1729 59.4079 48.2349 59.3116 48.2761 59.2059C48.3173 59.1002 48.3366 58.9873 48.3331 58.8739C48.3296 58.7605 48.3032 58.6491 48.2555 58.5461C48.2078 58.4432 48.1398 58.351 48.0556 58.275C47.9715 58.1989 47.8728 58.1407 47.7655 58.1037C47.6583 58.0668 47.5447 58.0519 47.4315 58.0599C47.3184 58.0679 47.208 58.0975 47.1071 58.1493ZM57.2492 57.9055L57.6536 57.4C57.7286 57.3144 57.7854 57.2144 57.8206 57.1062C57.8558 56.9979 57.8688 56.8837 57.8586 56.7703C57.8485 56.657 57.8155 56.5468 57.7616 56.4466C57.7078 56.3463 57.6341 56.258 57.5452 56.187C57.4562 56.116 57.3538 56.0637 57.2441 56.0334C57.1344 56.003 57.0197 55.9952 56.9069 56.0104C56.7941 56.0256 56.6856 56.0635 56.5878 56.1219C56.4901 56.1802 56.4052 56.2577 56.3382 56.3497L55.9339 56.8552C55.8589 56.9409 55.8021 57.0409 55.7669 57.1491C55.7316 57.2573 55.7187 57.3715 55.7288 57.4849C55.739 57.5983 55.772 57.7084 55.8258 57.8087C55.8797 57.9089 55.9533 57.9972 56.0423 58.0683C56.1312 58.1393 56.2336 58.1915 56.3433 58.2219C56.453 58.2522 56.5677 58.26 56.6805 58.2448C56.7933 58.2296 56.9019 58.1917 56.9996 58.1334C57.0974 58.0751 57.1823 57.9975 57.2492 57.9055ZM54.6814 48.6934C54.9048 48.6991 55.1214 48.6157 55.2834 48.4618C55.4454 48.3078 55.5395 48.0957 55.5452 47.8723C55.5509 47.6489 55.4675 47.4323 55.3135 47.2703C55.1595 47.1083 54.9475 47.0141 54.7241 47.0085L54.5747 47.0029C54.3608 47.0127 54.1586 47.103 54.0086 47.2558C53.8586 47.4085 53.7719 47.6123 53.7659 47.8262C53.7536 48.2733 54.1523 48.6934 54.6814 48.6934ZM36.8368 41.3864C36.7488 41.4461 36.6573 41.5005 36.5628 41.5493C35.7675 41.9425 36.0472 43.1466 36.9368 43.1466C37.2289 43.1466 37.5131 42.9613 37.7714 42.7883C37.8648 42.7275 37.9452 42.6488 38.0079 42.5568C38.0707 42.4647 38.1146 42.3611 38.137 42.252C38.1595 42.1429 38.1601 42.0304 38.1387 41.921C38.1174 41.8116 38.0746 41.7076 38.0128 41.6149C37.951 41.5222 37.8714 41.4427 37.7787 41.3809C37.686 41.3192 37.5819 41.2765 37.4725 41.2552C37.3631 41.234 37.2507 41.2346 37.1415 41.2571C37.0324 41.2797 36.9289 41.3236 36.8368 41.3864ZM11.6539 38.5434C11.5912 38.4522 11.5111 38.3743 11.4183 38.3141C11.3255 38.2538 11.2218 38.2125 11.113 38.1923C10.8933 38.1517 10.6664 38.2 10.4823 38.3266C10.2982 38.4532 10.1719 38.6478 10.1312 38.8675C10.0906 39.0872 10.1389 39.3141 10.2655 39.4982L10.8945 40.4114C10.957 40.5027 11.0369 40.5807 11.1296 40.641C11.2223 40.7013 11.326 40.7427 11.4347 40.7628C11.5435 40.783 11.6551 40.7815 11.7633 40.7584C11.8714 40.7353 11.974 40.691 12.065 40.6282C12.1562 40.5655 12.2341 40.4855 12.2943 40.3927C12.3545 40.2999 12.3959 40.1961 12.416 40.0873C12.4362 39.9785 12.4347 39.8668 12.4116 39.7586C12.3886 39.6504 12.3445 39.5478 12.2818 39.4566L11.6539 38.5434ZM8.83329 30.6815C8.79538 30.5775 8.73735 30.482 8.66253 30.4004C8.58771 30.3188 8.49755 30.2528 8.39721 30.2061C8.29686 30.1594 8.1883 30.1328 8.07771 30.1281C7.96712 30.1233 7.85668 30.1404 7.75268 30.1783C7.64869 30.2162 7.55318 30.2742 7.4716 30.349C7.39003 30.4238 7.324 30.514 7.27727 30.6143C7.23054 30.7147 7.20403 30.8233 7.19926 30.9338C7.19448 31.0444 7.21154 31.1549 7.24945 31.2589L7.79312 32.7461C7.8298 32.8516 7.8871 32.9488 7.96169 33.032C8.03628 33.1151 8.12666 33.1826 8.22758 33.2305C8.3285 33.2785 8.43795 33.3058 8.54954 33.311C8.66113 33.3162 8.77265 33.2992 8.8776 33.2609C8.98255 33.2226 9.07884 33.1639 9.16086 33.088C9.24288 33.0122 9.309 32.9208 9.35536 32.8191C9.40173 32.7175 9.42741 32.6076 9.43093 32.496C9.43444 32.3843 9.41572 32.2731 9.37583 32.1687L8.83329 30.6815ZM11.2326 24.0743C11.3846 24.0742 11.5337 24.0329 11.6641 23.955C11.7945 23.877 11.9015 23.7652 11.9735 23.6314C12.0456 23.4976 12.0801 23.3469 12.0735 23.195C12.0669 23.0432 12.0193 22.896 11.9358 22.7691L11.5539 22.1861C11.4304 22.0013 11.2389 21.8728 11.0212 21.8286C10.8034 21.7843 10.577 21.8279 10.3912 21.9498C10.2054 22.0718 10.0753 22.2622 10.0292 22.4796C9.98319 22.697 10.0249 22.9237 10.1453 23.1105C10.4014 23.4138 10.5733 24.0743 11.2326 24.0743ZM19.7898 36.189L20.0033 36.8012C20.0397 36.9057 20.0964 37.002 20.17 37.0846C20.2437 37.1672 20.3329 37.2345 20.4325 37.2827C20.5322 37.3308 20.6404 37.3588 20.7509 37.3652C20.8614 37.3715 20.972 37.356 21.0766 37.3196C21.1811 37.2831 21.2774 37.2265 21.36 37.1528C21.4426 37.0792 21.5099 36.9899 21.558 36.8903C21.6062 36.7906 21.6342 36.6824 21.6406 36.5719C21.6469 36.4614 21.6314 36.3508 21.595 36.2463L21.3804 35.6341C21.3456 35.5275 21.29 35.429 21.2166 35.3443C21.1433 35.2596 21.0538 35.1903 20.9534 35.1406C20.853 35.0908 20.7436 35.0617 20.6318 35.0547C20.5199 35.0478 20.4078 35.0632 20.302 35.1001C20.1962 35.137 20.0989 35.1947 20.0156 35.2697C19.9324 35.3447 19.8649 35.4355 19.8172 35.5369C19.7695 35.6383 19.7425 35.7482 19.7378 35.8602C19.7331 35.9722 19.7508 36.0839 19.7898 36.189ZM18.6677 25.1942C18.7598 25.3969 18.9284 25.5549 19.1366 25.6336C19.3448 25.7124 19.5758 25.7055 19.7789 25.6146C19.9821 25.5236 20.141 25.3559 20.2209 25.1481C20.3009 24.9403 20.2953 24.7093 20.2055 24.5057L19.8965 23.816C19.7056 23.3914 19.2057 23.1982 18.7834 23.3914C18.3588 23.5812 18.1678 24.0799 18.3588 24.5034L18.6677 25.1942ZM31.0384 36.4878C31.2399 36.4873 31.4346 36.4146 31.5871 36.2829C31.7396 36.1513 31.8399 35.9693 31.8697 35.77L31.9135 35.4802C31.9459 35.2591 31.8893 35.0342 31.7559 34.855C31.6226 34.6757 31.4235 34.5567 31.2024 34.5243C30.9816 34.4933 30.7575 34.5506 30.5786 34.6837C30.3997 34.8167 30.2804 35.0149 30.2465 35.2353L30.2038 35.5217C30.1861 35.6416 30.1944 35.7639 30.2282 35.8803C30.262 35.9967 30.3205 36.1044 30.3997 36.1961C30.4789 36.2878 30.577 36.3613 30.6872 36.4116C30.7975 36.462 30.9173 36.4879 31.0384 36.4878ZM33.9904 27.1398C34.0604 27.352 34.2119 27.5278 34.4115 27.6284C34.6111 27.729 34.8425 27.7461 35.0548 27.6761C35.267 27.6061 35.4428 27.4547 35.5434 27.2551C35.644 27.0555 35.6611 26.8241 35.5911 26.6118L35.3889 25.9974C35.3191 25.7851 35.1677 25.6093 34.9683 25.5086C34.7688 25.4079 34.5374 25.3906 34.3252 25.4605C34.1129 25.5303 33.9371 25.6816 33.8364 25.8811C33.7357 26.0806 33.7184 26.3119 33.7882 26.5242L33.9904 27.1398ZM25.6916 24.2102C25.8268 24.2104 25.96 24.178 26.0801 24.1159C26.2001 24.0537 26.3034 23.9635 26.3813 23.853L26.4565 23.7463L25.7668 23.2611L25.0401 22.832L25.6916 23.3678L25.0041 22.8836C24.916 23.0098 24.8641 23.1577 24.854 23.3112C24.8439 23.4648 24.876 23.6182 24.9468 23.7548C25.0176 23.8914 25.1244 24.0061 25.2557 24.0864C25.387 24.1666 25.5377 24.2095 25.6916 24.2102ZM15.2416 32.1137C15.4651 32.1137 15.6794 32.0249 15.8374 31.8669C15.9953 31.7089 16.0841 31.4947 16.0841 31.2712V30.3243C16.0841 30.1009 15.9953 29.8866 15.8374 29.7286C15.6794 29.5706 15.4651 29.4818 15.2416 29.4818C15.0182 29.4818 14.8039 29.5706 14.6459 29.7286C14.4879 29.8866 14.3992 30.1009 14.3992 30.3243V31.2701C14.3992 31.7351 14.7766 32.1126 15.2416 32.1126V32.1137ZM25.7882 32.2372C26.0071 32.1931 26.1996 32.0638 26.3232 31.8778C26.4468 31.6918 26.4916 31.4643 26.4476 31.2454L26.1735 29.8941C26.1191 29.6854 25.9869 29.5054 25.804 29.3911C25.6211 29.2769 25.4014 29.237 25.19 29.2797C24.9786 29.3224 24.7916 29.4445 24.6674 29.6208C24.5432 29.7971 24.4913 30.0143 24.5222 30.2277L24.7952 31.579C24.8171 31.6875 24.8601 31.7907 24.9218 31.8825C24.9836 31.9744 25.0628 32.0532 25.1551 32.1145C25.2473 32.1757 25.3507 32.2182 25.4593 32.2394C25.5679 32.2607 25.6797 32.2603 25.7882 32.2384V32.2372ZM37.8242 22.6477C38.0477 22.6477 38.2619 22.559 38.4199 22.401C38.5779 22.243 38.6667 22.0287 38.6667 21.8053V21.6705C38.6667 21.447 38.5779 21.2328 38.4199 21.0748C38.2619 20.9168 38.0477 20.828 37.8242 20.828C36.6987 20.828 36.6964 22.6477 37.8242 22.6477ZM40.1876 35.8992L40.0506 35.6296C39.9464 35.436 39.7708 35.2909 39.5612 35.225C39.3515 35.1591 39.1244 35.1778 38.9283 35.277C38.7322 35.3762 38.5827 35.5482 38.5116 35.7561C38.4404 35.964 38.4534 36.1915 38.5476 36.39L38.6847 36.6596C38.7343 36.759 38.8031 36.8475 38.887 36.9202C38.971 36.9928 39.0685 37.0482 39.1739 37.083C39.2793 37.1178 39.3906 37.1315 39.5013 37.1232C39.6121 37.1149 39.72 37.0848 39.8191 37.0346C39.9181 36.9844 40.0063 36.9151 40.0785 36.8307C40.1506 36.7464 40.2054 36.6486 40.2397 36.5429C40.2739 36.4373 40.287 36.326 40.278 36.2153C40.2691 36.1046 40.2384 35.9979 40.1876 35.8992ZM30.3791 45.9032L30.0511 46.1222C29.3636 46.5872 29.6927 47.6634 30.5228 47.6634C30.8902 47.6634 31.1384 47.3994 31.3945 47.2511C31.7821 46.9928 31.8461 46.4974 31.5877 46.1099C31.3294 45.7223 30.7655 45.6448 30.3791 45.9032ZM42.5263 43.4398C42.5263 43.9048 42.9026 44.2823 43.3688 44.2823H43.5036C43.727 44.2823 43.9413 44.1935 44.0993 44.0355C44.2573 43.8775 44.346 43.6632 44.346 43.4398C44.346 43.2164 44.2573 43.0021 44.0993 42.8441C43.9413 42.6861 43.727 42.5973 43.5036 42.5973H43.3688C43.1453 42.5973 42.931 42.6861 42.7731 42.8441C42.6151 43.0021 42.5263 43.2164 42.5263 43.4398ZM49.9872 53.4786C50.5601 53.4786 50.9678 52.917 50.7858 52.3711L50.6488 51.9622C50.5673 51.7639 50.4134 51.604 50.2182 51.5151C50.0231 51.4263 49.8015 51.415 49.5984 51.4837C49.3953 51.5523 49.2259 51.6957 49.1247 51.8848C49.0236 52.0738 48.9982 52.2943 49.0537 52.5014C49.129 52.6294 49.1975 53.4786 49.9872 53.4786ZM47.6631 63.9937C47.6631 64.4588 48.0405 64.8362 48.5056 64.8362H49.1829C49.4063 64.8362 49.6206 64.7474 49.7786 64.5894C49.9366 64.4314 50.0254 64.2172 50.0254 63.9937C50.0254 63.7703 49.9366 63.556 49.7786 63.398C49.6206 63.24 49.4063 63.1512 49.1829 63.1512H48.5056C48.2821 63.1512 48.0678 63.24 47.9098 63.398C47.7519 63.556 47.6631 63.7703 47.6631 63.9937ZM56.3484 64.0252C57.0235 64.0252 57.1493 63.4006 57.238 63.2883C57.2884 63.1892 57.3188 63.0811 57.3272 62.9702C57.3357 62.8594 57.3221 62.7479 57.2873 62.6423C57.2525 62.5368 57.1971 62.4391 57.1244 62.355C57.0516 62.2709 56.963 62.202 56.8635 62.1524C56.764 62.1027 56.6557 62.0732 56.5448 62.0656C56.4339 62.058 56.3225 62.0725 56.2172 62.1081C56.1119 62.1437 56.0147 62.1999 55.9311 62.2732C55.8476 62.3466 55.7794 62.4358 55.7305 62.5357L55.5958 62.8053C55.5314 62.9337 55.501 63.0764 55.5073 63.2199C55.5136 63.3633 55.5565 63.5028 55.6319 63.625C55.7074 63.7473 55.8128 63.8482 55.9381 63.9182C56.0635 63.9883 56.2047 64.0251 56.3484 64.0252Z" fill="#FF6161"/>
</svg>
